<?xml version="1.0" encoding="utf-8" standalone="no"?>
<!DOCTYPE svg PUBLIC "-//W3C//DTD SVG 1.1//EN"
  "http://www.w3.org/Graphics/SVG/1.1/DTD/svg11.dtd">
<svg xmlns:xlink="http://www.w3.org/1999/xlink" width="288pt" height="288pt" viewBox="0 0 288 288" xmlns="http://www.w3.org/2000/svg" version="1.1">
 <metadata>
  <rdf:RDF xmlns:dc="http://purl.org/dc/elements/1.1/" xmlns:cc="http://creativecommons.org/ns#" xmlns:rdf="http://www.w3.org/1999/02/22-rdf-syntax-ns#">
   <cc:Work>
    <dc:type rdf:resource="http://purl.org/dc/dcmitype/StillImage"/>
    <dc:date>2026-09-07T10:51:42.650151</dc:date>
    <dc:format>image/svg+xml</dc:format>
    <dc:creator>
     <cc:Agent>
      <dc:title>Matplotlib v3.9.2, https://matplotlib.org/</dc:title>
     </cc:Agent>
    </dc:creator>
   </cc:Work>
  </rdf:RDF>
 </metadata>
 <defs>
  <style type="text/css">*{stroke-linejoin: round; stroke-linecap: butt}</style>
 </defs>
 <g id="figure_1">
  <g id="patch_1">
   <path d="M 0 288 
L 288 288 
L 288 0 
L 0 0 
z
" style="fill: #ffffff"/>
  </g>
  <g id="axes_1">
   <g id="patch_2">
    <path d="M 36 256.32 
L 259.2 256.32 
L 259.2 34.56 
L 36 34.56 
z
" style="fill: #ffffff"/>
   </g>
   <g id="matplotlib.axis_1">
    <g id="xtick_1">
     <g id="line2d_1">
      <path d="M 48.4 256.32 
L 48.4 34.56 
" clip-path="url(#pa1173015ef)" style="fill: none; stroke: #b0b0b0; stroke-opacity: 0.3; stroke-width: 0.8; stroke-linecap: square"/>
     </g>
     <g id="line2d_2">
      <defs>
       <path id="m6b96f9797e" d="M 0 0 
L 0 3.5 
" style="stroke: #000000; stroke-width: 0.8"/>
      </defs>
      <g>
       <use xlink:href="#m6b96f9797e" x="48.4" y="145.44" style="stroke: #000000; stroke-width: 0.8"/>
      </g>
     </g>
     <g id="text_1">
      <!-- -4 -->
      <g transform="translate(43.54 160.91125) scale(0.12 -0.12)">
       <defs>
        <path id="STIXTwoText-2d" d="M 1728 1395 
L 288 1395 
L 288 1811 
L 1728 1811 
L 1728 1395 
z
" transform="scale(0.015625)"/>
        <path id="STIXTwoText-34" d="M 2426 0 
L 1856 0 
L 1856 1011 
L 83 1011 
L 83 1414 
L 2035 4128 
L 2426 4128 
L 2426 1453 
L 3078 1453 
L 3078 1011 
L 2426 1011 
L 2426 0 
z
M 435 1478 
L 435 1453 
L 1856 1453 
L 1856 3430 
L 1830 3430 
L 435 1478 
z
" transform="scale(0.015625)"/>
       </defs>
       <use xlink:href="#STIXTwoText-2d"/>
       <use xlink:href="#STIXTwoText-34" x="31.499985"/>
      </g>
     </g>
    </g>
    <g id="xtick_2">
     <g id="line2d_3">
      <path d="M 73.2 256.32 
L 73.2 34.56 
" clip-path="url(#pa1173015ef)" style="fill: none; stroke: #b0b0b0; stroke-opacity: 0.3; stroke-width: 0.8; stroke-linecap: square"/>
     </g>
     <g id="line2d_4">
      <g>
       <use xlink:href="#m6b96f9797e" x="73.2" y="145.44" style="stroke: #000000; stroke-width: 0.8"/>
      </g>
     </g>
     <g id="text_2">
      <!-- -3 -->
      <g transform="translate(68.34 160.91125) scale(0.12 -0.12)">
       <defs>
        <path id="STIXTwoText-33" d="M 1094 -83 
Q 806 -83 652 -28 
Q 499 26 438 106 
Q 378 186 378 269 
Q 378 371 442 460 
Q 506 550 627 550 
Q 723 550 828 502 
Q 934 454 1049 393 
Q 1165 333 1283 285 
Q 1402 237 1523 237 
Q 1728 237 1907 310 
Q 2086 384 2201 560 
Q 2317 736 2317 1050 
Q 2317 1338 2157 1549 
Q 1997 1760 1731 1878 
Q 1466 1997 1158 1997 
L 1030 1997 
L 1030 2240 
L 1152 2240 
Q 1370 2240 1574 2349 
Q 1779 2458 1910 2656 
Q 2042 2854 2042 3110 
Q 2042 3392 1866 3549 
Q 1690 3706 1389 3706 
Q 1101 3706 909 3574 
Q 717 3443 550 3187 
L 403 3270 
Q 582 3686 876 3904 
Q 1171 4122 1562 4122 
Q 2054 4122 2323 3875 
Q 2592 3629 2592 3264 
Q 2592 2931 2397 2726 
Q 2202 2522 1901 2330 
L 1901 2310 
Q 2157 2234 2371 2090 
Q 2586 1946 2714 1738 
Q 2842 1530 2842 1242 
Q 2842 806 2598 508 
Q 2355 211 1958 64 
Q 1562 -83 1094 -83 
z
" transform="scale(0.015625)"/>
       </defs>
       <use xlink:href="#STIXTwoText-2d"/>
       <use xlink:href="#STIXTwoText-33" x="31.499985"/>
      </g>
     </g>
    </g>
    <g id="xtick_3">
     <g id="line2d_5">
      <path d="M 98 256.32 
L 98 34.56 
" clip-path="url(#pa1173015ef)" style="fill: none; stroke: #b0b0b0; stroke-opacity: 0.3; stroke-width: 0.8; stroke-linecap: square"/>
     </g>
     <g id="line2d_6">
      <g>
       <use xlink:href="#m6b96f9797e" x="98" y="145.44" style="stroke: #000000; stroke-width: 0.8"/>
      </g>
     </g>
     <g id="text_3">
      <!-- -2 -->
      <g transform="translate(93.14 160.91125) scale(0.12 -0.12)">
       <defs>
        <path id="STIXTwoText-32" d="M 2765 0 
L 243 0 
L 243 218 
L 1216 1190 
Q 1536 1517 1747 1782 
Q 1958 2048 2064 2317 
Q 2170 2586 2170 2918 
Q 2170 3277 1955 3491 
Q 1741 3706 1370 3706 
Q 1056 3706 835 3571 
Q 614 3437 435 3078 
L 282 3142 
Q 429 3610 749 3866 
Q 1069 4122 1536 4122 
Q 1901 4122 2176 3984 
Q 2451 3846 2608 3600 
Q 2765 3354 2765 3014 
Q 2765 2733 2646 2473 
Q 2528 2214 2294 1939 
Q 2061 1664 1722 1318 
L 877 518 
L 877 486 
L 1325 506 
L 2214 506 
Q 2470 506 2572 621 
Q 2675 736 2784 1024 
L 2970 1024 
L 2765 0 
z
" transform="scale(0.015625)"/>
       </defs>
       <use xlink:href="#STIXTwoText-2d"/>
       <use xlink:href="#STIXTwoText-32" x="31.499985"/>
      </g>
     </g>
    </g>
    <g id="xtick_4">
     <g id="line2d_7">
      <path d="M 122.8 256.32 
L 122.8 34.56 
" clip-path="url(#pa1173015ef)" style="fill: none; stroke: #b0b0b0; stroke-opacity: 0.3; stroke-width: 0.8; stroke-linecap: square"/>
     </g>
     <g id="line2d_8">
      <g>
       <use xlink:href="#m6b96f9797e" x="122.8" y="145.44" style="stroke: #000000; stroke-width: 0.8"/>
      </g>
     </g>
     <g id="text_4">
      <!-- -1 -->
      <g transform="translate(117.94 160.91125) scale(0.12 -0.12)">
       <defs>
        <path id="STIXTwoText-31" d="M 2726 0 
L 512 0 
L 512 179 
Q 966 179 1152 275 
Q 1338 371 1338 608 
L 1338 3315 
Q 1338 3482 1293 3555 
Q 1248 3629 1126 3629 
Q 1062 3629 947 3616 
Q 832 3603 704 3580 
Q 576 3558 474 3526 
L 474 3738 
L 1715 4090 
L 1901 4090 
L 1901 608 
Q 1901 371 2093 275 
Q 2285 179 2726 179 
L 2726 0 
z
" transform="scale(0.015625)"/>
       </defs>
       <use xlink:href="#STIXTwoText-2d"/>
       <use xlink:href="#STIXTwoText-31" x="31.499985"/>
      </g>
     </g>
    </g>
    <g id="xtick_5">
     <g id="line2d_9">
      <path d="M 147.6 256.32 
L 147.6 34.56 
" clip-path="url(#pa1173015ef)" style="fill: none; stroke: #b0b0b0; stroke-opacity: 0.3; stroke-width: 0.8; stroke-linecap: square"/>
     </g>
     <g id="line2d_10">
      <g>
       <use xlink:href="#m6b96f9797e" x="147.6" y="145.44" style="stroke: #000000; stroke-width: 0.8"/>
      </g>
     </g>
     <g id="text_5">
      <!-- 0 -->
      <g transform="translate(144.63 160.91125) scale(0.12 -0.12)">
       <defs>
        <path id="STIXTwoText-30" d="M 1581 -70 
Q 1197 -70 928 99 
Q 659 269 492 563 
Q 326 858 249 1242 
Q 173 1626 173 2048 
Q 173 2656 336 3120 
Q 499 3584 816 3846 
Q 1133 4109 1594 4109 
Q 2010 4109 2323 3862 
Q 2637 3616 2816 3152 
Q 2995 2688 2995 2029 
Q 2995 1619 2915 1241 
Q 2835 864 2665 569 
Q 2496 275 2227 102 
Q 1958 -70 1581 -70 
z
M 1581 160 
Q 1958 160 2166 614 
Q 2374 1069 2374 1990 
Q 2374 2963 2172 3427 
Q 1971 3891 1574 3891 
Q 1197 3891 992 3430 
Q 787 2970 787 2016 
Q 787 1088 992 624 
Q 1197 160 1581 160 
z
" transform="scale(0.015625)"/>
       </defs>
       <use xlink:href="#STIXTwoText-30"/>
      </g>
     </g>
    </g>
    <g id="xtick_6">
     <g id="line2d_11">
      <path d="M 172.4 256.32 
L 172.4 34.56 
" clip-path="url(#pa1173015ef)" style="fill: none; stroke: #b0b0b0; stroke-opacity: 0.3; stroke-width: 0.8; stroke-linecap: square"/>
     </g>
     <g id="line2d_12">
      <g>
       <use xlink:href="#m6b96f9797e" x="172.4" y="145.44" style="stroke: #000000; stroke-width: 0.8"/>
      </g>
     </g>
     <g id="text_6">
      <!-- 1 -->
      <g transform="translate(169.43 160.91125) scale(0.12 -0.12)">
       <use xlink:href="#STIXTwoText-31"/>
      </g>
     </g>
    </g>
    <g id="xtick_7">
     <g id="line2d_13">
      <path d="M 197.2 256.32 
L 197.2 34.56 
" clip-path="url(#pa1173015ef)" style="fill: none; stroke: #b0b0b0; stroke-opacity: 0.3; stroke-width: 0.8; stroke-linecap: square"/>
     </g>
     <g id="line2d_14">
      <g>
       <use xlink:href="#m6b96f9797e" x="197.2" y="145.44" style="stroke: #000000; stroke-width: 0.8"/>
      </g>
     </g>
     <g id="text_7">
      <!-- 2 -->
      <g transform="translate(194.23 160.91125) scale(0.12 -0.12)">
       <use xlink:href="#STIXTwoText-32"/>
      </g>
     </g>
    </g>
    <g id="xtick_8">
     <g id="line2d_15">
      <path d="M 222 256.32 
L 222 34.56 
" clip-path="url(#pa1173015ef)" style="fill: none; stroke: #b0b0b0; stroke-opacity: 0.3; stroke-width: 0.8; stroke-linecap: square"/>
     </g>
     <g id="line2d_16">
      <g>
       <use xlink:href="#m6b96f9797e" x="222" y="145.44" style="stroke: #000000; stroke-width: 0.8"/>
      </g>
     </g>
     <g id="text_8">
      <!-- 3 -->
      <g transform="translate(219.03 160.91125) scale(0.12 -0.12)">
       <use xlink:href="#STIXTwoText-33"/>
      </g>
     </g>
    </g>
    <g id="xtick_9">
     <g id="line2d_17">
      <path d="M 246.8 256.32 
L 246.8 34.56 
" clip-path="url(#pa1173015ef)" style="fill: none; stroke: #b0b0b0; stroke-opacity: 0.3; stroke-width: 0.8; stroke-linecap: square"/>
     </g>
     <g id="line2d_18">
      <g>
       <use xlink:href="#m6b96f9797e" x="246.8" y="145.44" style="stroke: #000000; stroke-width: 0.8"/>
      </g>
     </g>
     <g id="text_9">
      <!-- 4 -->
      <g transform="translate(243.83 160.91125) scale(0.12 -0.12)">
       <use xlink:href="#STIXTwoText-34"/>
      </g>
     </g>
    </g>
   </g>
   <g id="matplotlib.axis_2">
    <g id="ytick_1">
     <g id="line2d_19">
      <path d="M 36 244 
L 259.2 244 
" clip-path="url(#pa1173015ef)" style="fill: none; stroke: #b0b0b0; stroke-opacity: 0.3; stroke-width: 0.8; stroke-linecap: square"/>
     </g>
     <g id="line2d_20">
      <defs>
       <path id="mf3295db231" d="M 0 0 
L -3.5 0 
" style="stroke: #000000; stroke-width: 0.8"/>
      </defs>
      <g>
       <use xlink:href="#mf3295db231" x="147.6" y="244" style="stroke: #000000; stroke-width: 0.8"/>
      </g>
     </g>
     <g id="text_10">
      <!-- -4 -->
      <g transform="translate(130.88 248.235625) scale(0.12 -0.12)">
       <use xlink:href="#STIXTwoText-2d"/>
       <use xlink:href="#STIXTwoText-34" x="31.499985"/>
      </g>
     </g>
    </g>
    <g id="ytick_2">
     <g id="line2d_21">
      <path d="M 36 219.36 
L 259.2 219.36 
" clip-path="url(#pa1173015ef)" style="fill: none; stroke: #b0b0b0; stroke-opacity: 0.3; stroke-width: 0.8; stroke-linecap: square"/>
     </g>
     <g id="line2d_22">
      <g>
       <use xlink:href="#mf3295db231" x="147.6" y="219.36" style="stroke: #000000; stroke-width: 0.8"/>
      </g>
     </g>
     <g id="text_11">
      <!-- -3 -->
      <g transform="translate(130.88 223.595625) scale(0.12 -0.12)">
       <use xlink:href="#STIXTwoText-2d"/>
       <use xlink:href="#STIXTwoText-33" x="31.499985"/>
      </g>
     </g>
    </g>
    <g id="ytick_3">
     <g id="line2d_23">
      <path d="M 36 194.72 
L 259.2 194.72 
" clip-path="url(#pa1173015ef)" style="fill: none; stroke: #b0b0b0; stroke-opacity: 0.3; stroke-width: 0.8; stroke-linecap: square"/>
     </g>
     <g id="line2d_24">
      <g>
       <use xlink:href="#mf3295db231" x="147.6" y="194.72" style="stroke: #000000; stroke-width: 0.8"/>
      </g>
     </g>
     <g id="text_12">
      <!-- -2 -->
      <g transform="translate(130.88 198.955625) scale(0.12 -0.12)">
       <use xlink:href="#STIXTwoText-2d"/>
       <use xlink:href="#STIXTwoText-32" x="31.499985"/>
      </g>
     </g>
    </g>
    <g id="ytick_4">
     <g id="line2d_25">
      <path d="M 36 170.08 
L 259.2 170.08 
" clip-path="url(#pa1173015ef)" style="fill: none; stroke: #b0b0b0; stroke-opacity: 0.3; stroke-width: 0.8; stroke-linecap: square"/>
     </g>
     <g id="line2d_26">
      <g>
       <use xlink:href="#mf3295db231" x="147.6" y="170.08" style="stroke: #000000; stroke-width: 0.8"/>
      </g>
     </g>
     <g id="text_13">
      <!-- -1 -->
      <g transform="translate(130.88 174.315625) scale(0.12 -0.12)">
       <use xlink:href="#STIXTwoText-2d"/>
       <use xlink:href="#STIXTwoText-31" x="31.499985"/>
      </g>
     </g>
    </g>
    <g id="ytick_5">
     <g id="line2d_27">
      <path d="M 36 145.44 
L 259.2 145.44 
" clip-path="url(#pa1173015ef)" style="fill: none; stroke: #b0b0b0; stroke-opacity: 0.3; stroke-width: 0.8; stroke-linecap: square"/>
     </g>
     <g id="line2d_28">
      <g>
       <use xlink:href="#mf3295db231" x="147.6" y="145.44" style="stroke: #000000; stroke-width: 0.8"/>
      </g>
     </g>
     <g id="text_14">
      <!-- 0 -->
      <g transform="translate(134.66 149.675625) scale(0.12 -0.12)">
       <use xlink:href="#STIXTwoText-30"/>
      </g>
     </g>
    </g>
    <g id="ytick_6">
     <g id="line2d_29">
      <path d="M 36 120.8 
L 259.2 120.8 
" clip-path="url(#pa1173015ef)" style="fill: none; stroke: #b0b0b0; stroke-opacity: 0.3; stroke-width: 0.8; stroke-linecap: square"/>
     </g>
     <g id="line2d_30">
      <g>
       <use xlink:href="#mf3295db231" x="147.6" y="120.8" style="stroke: #000000; stroke-width: 0.8"/>
      </g>
     </g>
     <g id="text_15">
      <!-- 1 -->
      <g transform="translate(134.66 125.035625) scale(0.12 -0.12)">
       <use xlink:href="#STIXTwoText-31"/>
      </g>
     </g>
    </g>
    <g id="ytick_7">
     <g id="line2d_31">
      <path d="M 36 96.16 
L 259.2 96.16 
" clip-path="url(#pa1173015ef)" style="fill: none; stroke: #b0b0b0; stroke-opacity: 0.3; stroke-width: 0.8; stroke-linecap: square"/>
     </g>
     <g id="line2d_32">
      <g>
       <use xlink:href="#mf3295db231" x="147.6" y="96.16" style="stroke: #000000; stroke-width: 0.8"/>
      </g>
     </g>
     <g id="text_16">
      <!-- 2 -->
      <g transform="translate(134.66 100.395625) scale(0.12 -0.12)">
       <use xlink:href="#STIXTwoText-32"/>
      </g>
     </g>
    </g>
    <g id="ytick_8">
     <g id="line2d_33">
      <path d="M 36 71.52 
L 259.2 71.52 
" clip-path="url(#pa1173015ef)" style="fill: none; stroke: #b0b0b0; stroke-opacity: 0.3; stroke-width: 0.8; stroke-linecap: square"/>
     </g>
     <g id="line2d_34">
      <g>
       <use xlink:href="#mf3295db231" x="147.6" y="71.52" style="stroke: #000000; stroke-width: 0.8"/>
      </g>
     </g>
     <g id="text_17">
      <!-- 3 -->
      <g transform="translate(134.66 75.755625) scale(0.12 -0.12)">
       <use xlink:href="#STIXTwoText-33"/>
      </g>
     </g>
    </g>
    <g id="ytick_9">
     <g id="line2d_35">
      <path d="M 36 46.88 
L 259.2 46.88 
" clip-path="url(#pa1173015ef)" style="fill: none; stroke: #b0b0b0; stroke-opacity: 0.3; stroke-width: 0.8; stroke-linecap: square"/>
     </g>
     <g id="line2d_36">
      <g>
       <use xlink:href="#mf3295db231" x="147.6" y="46.88" style="stroke: #000000; stroke-width: 0.8"/>
      </g>
     </g>
     <g id="text_18">
      <!-- 4 -->
      <g transform="translate(134.66 51.115625) scale(0.12 -0.12)">
       <use xlink:href="#STIXTwoText-34"/>
      </g>
     </g>
    </g>
   </g>
   <g id="PathCollection_1">
    <defs>
     <path id="m7f5c364bf0" d="M 0 3 
C 0.795609 3 1.55874 2.683901 2.12132 2.12132 
C 2.683901 1.55874 3 0.795609 3 0 
C 3 -0.795609 2.683901 -1.55874 2.12132 -2.12132 
C 1.55874 -2.683901 0.795609 -3 0 -3 
C -0.795609 -3 -1.55874 -2.683901 -2.12132 -2.12132 
C -2.683901 -1.55874 -3 -0.795609 -3 0 
C -3 0.795609 -2.683901 1.55874 -2.12132 2.12132 
C -1.55874 2.683901 -0.795609 3 0 3 
z
" style="stroke: #ff0000"/>
    </defs>
    <g clip-path="url(#pa1173015ef)">
     <use xlink:href="#m7f5c364bf0" x="172.4" y="96.16" style="fill: #ff0000; stroke: #ff0000"/>
    </g>
   </g>
   <g id="PathCollection_2">
    <defs>
     <path id="m5f2e61f558" d="M 0 3 
C 0.795609 3 1.55874 2.683901 2.12132 2.12132 
C 2.683901 1.55874 3 0.795609 3 0 
C 3 -0.795609 2.683901 -1.55874 2.12132 -2.12132 
C 1.55874 -2.683901 0.795609 -3 0 -3 
C -0.795609 -3 -1.55874 -2.683901 -2.12132 -2.12132 
C -2.683901 -1.55874 -3 -0.795609 -3 0 
C -3 0.795609 -2.683901 1.55874 -2.12132 2.12132 
C -1.55874 2.683901 -0.795609 3 0 3 
z
" style="stroke: #0000ff"/>
    </defs>
    <g clip-path="url(#pa1173015ef)">
     <use xlink:href="#m5f2e61f558" x="197.2" y="219.36" style="fill: #0000ff; stroke: #0000ff"/>
    </g>
   </g>
   <g id="line2d_37">
    <defs>
     <path id="m25ccd5dfa6" d="M 3 0 
L -3 -3 
L -3 3 
z
" style="stroke: #000000; stroke-linejoin: miter"/>
    </defs>
    <g>
     <use xlink:href="#m25ccd5dfa6" x="259.2" y="145.44" style="stroke: #000000; stroke-linejoin: miter"/>
    </g>
   </g>
   <g id="line2d_38">
    <defs>
     <path id="m127ec09f57" d="M 0 -3 
L -3 3 
L 3 3 
z
" style="stroke: #000000; stroke-linejoin: miter"/>
    </defs>
    <g>
     <use xlink:href="#m127ec09f57" x="147.6" y="34.56" style="stroke: #000000; stroke-linejoin: miter"/>
    </g>
   </g>
   <g id="patch_3">
    <path d="M 147.6 256.32 
L 147.6 34.56 
" style="fill: none; stroke: #000000; stroke-width: 0.8; stroke-linejoin: miter; stroke-linecap: square"/>
   </g>
   <g id="patch_4">
    <path d="M 36 145.44 
L 259.2 145.44 
" style="fill: none; stroke: #000000; stroke-width: 0.8; stroke-linejoin: miter; stroke-linecap: square"/>
   </g>
   <g id="text_19">
    <!-- 1 -->
    <g transform="translate(263.2 138.8) scale(0.12 -0.12)">
     <use xlink:href="#STIXTwoText-31"/>
    </g>
   </g>
   <g id="text_20">
    <!-- 2 -->
    <g transform="translate(151.6 27.92) scale(0.12 -0.12)">
     <use xlink:href="#STIXTwoText-32"/>
    </g>
   </g>
  </g>
 </g>
 <defs>
  <clipPath id="pa1173015ef">
   <rect x="36" y="34.56" width="223.2" height="221.76"/>
  </clipPath>
 </defs>
</svg>
