<?xml version="1.0" encoding="UTF-8"?>
<svg xmlns="http://www.w3.org/2000/svg" xmlns:xlink="http://www.w3.org/1999/xlink" width="253.953pt" height="161.109pt" viewBox="0 0 253.953 161.109">
<defs>
<filter id="filter-remove-color-and-invert-alpha" x="0%" y="0%" width="100%" height="100%">
<feColorMatrix color-interpolation-filters="sRGB" values="0 0 0 0 1 0 0 0 0 1 0 0 0 0 1 0 0 0 -1 1"/>
</filter>
<filter id="filter-0" x="0%" y="0%" width="100%" height="100%">
<feImage xlink:href="#compositing-group-1" result="source" x="0" y="0" width="304.7436" height="193.3308"/>
<feImage xlink:href="#compositing-group-2" result="destination" x="0" y="0" width="304.7436" height="193.3308"/>
<feBlend in="source" in2="destination" mode="multiply" color-interpolation-filters="sRGB"/>
</filter>
<filter id="filter-1" x="0%" y="0%" width="100%" height="100%">
<feImage xlink:href="#compositing-group-3" result="source" x="0" y="0" width="304.7436" height="193.3308"/>
<feImage xlink:href="#compositing-group-4" result="destination" x="0" y="0" width="304.7436" height="193.3308"/>
<feComposite in="source" in2="destination" operator="arithmetic" k1="0" k2="1" k3="1" k4="0" color-interpolation-filters="sRGB"/>
</filter>
<g>
<g id="glyph-0-0">
<path d="M 0.46875 -0.28125 C 0.875 -0.03125 1.453125 0.125 2.09375 0.125 C 3.46875 0.125 4.25 -0.59375 4.25 -1.609375 C 4.25 -2.46875 3.734375 -2.96875 2.734375 -3.359375 C 1.984375 -3.640625 1.640625 -3.859375 1.640625 -4.328125 C 1.640625 -4.765625 1.984375 -5.125 2.609375 -5.125 C 3.140625 -5.125 3.5625 -4.9375 3.78125 -4.78125 L 4.046875 -5.546875 C 3.71875 -5.734375 3.21875 -5.90625 2.625 -5.90625 C 1.390625 -5.90625 0.625 -5.140625 0.625 -4.21875 C 0.625 -3.515625 1.125 -2.953125 2.15625 -2.578125 C 2.9375 -2.296875 3.234375 -2.015625 3.234375 -1.515625 C 3.234375 -1.03125 2.875 -0.65625 2.109375 -0.65625 C 1.59375 -0.65625 1.03125 -0.875 0.734375 -1.078125 Z M 0.46875 -0.28125 "/>
</g>
<g id="glyph-0-1">
<path d="M 1.921875 0 L 1.921875 -5.78125 L 0.875 -5.78125 L 0.875 0 Z M 1.390625 -8.0625 C 1.015625 -8.0625 0.734375 -7.765625 0.734375 -7.40625 C 0.734375 -7.046875 1 -6.75 1.375 -6.75 C 1.796875 -6.75 2.046875 -7.046875 2.046875 -7.40625 C 2.046875 -7.765625 1.796875 -8.0625 1.390625 -8.0625 Z M 1.390625 -8.0625 "/>
</g>
<g id="glyph-0-2">
<path d="M 0.875 0 L 1.921875 0 L 1.921875 -3.46875 C 1.921875 -3.65625 1.953125 -3.828125 2 -3.96875 C 2.171875 -4.546875 2.703125 -5.03125 3.40625 -5.03125 C 4.390625 -5.03125 4.734375 -4.265625 4.734375 -3.328125 L 4.734375 0 L 5.796875 0 L 5.796875 -3.453125 C 5.796875 -5.4375 4.546875 -5.90625 3.75 -5.90625 C 2.796875 -5.90625 2.125 -5.375 1.84375 -4.828125 L 1.8125 -4.828125 L 1.75 -5.78125 L 0.828125 -5.78125 C 0.859375 -5.296875 0.875 -4.8125 0.875 -4.21875 Z M 0.875 0 "/>
</g>
<g id="glyph-0-3">
<path d="M 4.9375 -5.78125 L 4.875 -4.90625 L 4.859375 -4.90625 C 4.609375 -5.390625 4.0625 -5.90625 3.0625 -5.90625 C 1.734375 -5.90625 0.453125 -4.796875 0.453125 -2.84375 C 0.453125 -1.234375 1.484375 -0.03125 2.90625 -0.03125 C 3.8125 -0.03125 4.421875 -0.453125 4.75 -0.984375 L 4.78125 -0.984375 L 4.78125 -0.34375 C 4.78125 1.109375 3.984375 1.671875 2.90625 1.671875 C 2.203125 1.671875 1.59375 1.453125 1.21875 1.21875 L 0.953125 2.015625 C 1.421875 2.328125 2.1875 2.5 2.875 2.5 C 3.609375 2.5 4.421875 2.328125 4.984375 1.796875 C 5.53125 1.296875 5.796875 0.484375 5.796875 -0.828125 L 5.796875 -4.1875 C 5.796875 -4.890625 5.828125 -5.359375 5.84375 -5.78125 Z M 4.765625 -2.453125 C 4.765625 -2.28125 4.734375 -2.078125 4.671875 -1.890625 C 4.453125 -1.234375 3.875 -0.828125 3.21875 -0.828125 C 2.09375 -0.828125 1.515625 -1.765625 1.515625 -2.90625 C 1.515625 -4.234375 2.234375 -5.078125 3.234375 -5.078125 C 4 -5.078125 4.515625 -4.578125 4.703125 -3.96875 C 4.75 -3.828125 4.765625 -3.671875 4.765625 -3.5 Z M 4.765625 -2.453125 "/>
</g>
<g id="glyph-0-4">
<path d="M 5.703125 -5.78125 L 4.65625 -5.78125 L 4.65625 -2.234375 C 4.65625 -2.046875 4.625 -1.84375 4.5625 -1.6875 C 4.375 -1.234375 3.875 -0.734375 3.171875 -0.734375 C 2.21875 -0.734375 1.890625 -1.484375 1.890625 -2.578125 L 1.890625 -5.78125 L 0.828125 -5.78125 L 0.828125 -2.40625 C 0.828125 -0.375 1.921875 0.125 2.828125 0.125 C 3.859375 0.125 4.46875 -0.484375 4.734375 -0.9375 L 4.765625 -0.9375 L 4.828125 0 L 5.75 0 C 5.71875 -0.453125 5.703125 -0.984375 5.703125 -1.578125 Z M 5.703125 -5.78125 "/>
</g>
<g id="glyph-0-5">
<path d="M 0.875 0 L 1.921875 0 L 1.921875 -8.46875 L 0.875 -8.46875 Z M 0.875 0 "/>
</g>
<g id="glyph-0-6">
<path d="M 5.03125 0 C 4.953125 -0.390625 4.9375 -0.890625 4.9375 -1.390625 L 4.9375 -3.546875 C 4.9375 -4.703125 4.5 -5.90625 2.734375 -5.90625 C 2 -5.90625 1.3125 -5.703125 0.828125 -5.390625 L 1.078125 -4.703125 C 1.484375 -4.96875 2.046875 -5.140625 2.578125 -5.140625 C 3.765625 -5.140625 3.890625 -4.28125 3.890625 -3.796875 L 3.890625 -3.671875 C 1.65625 -3.6875 0.421875 -2.921875 0.421875 -1.53125 C 0.421875 -0.6875 1.015625 0.125 2.1875 0.125 C 3.015625 0.125 3.625 -0.28125 3.953125 -0.734375 L 3.984375 -0.734375 L 4.078125 0 Z M 3.921875 -1.953125 C 3.921875 -1.84375 3.890625 -1.71875 3.859375 -1.609375 C 3.6875 -1.125 3.21875 -0.640625 2.453125 -0.640625 C 1.921875 -0.640625 1.46875 -0.96875 1.46875 -1.640625 C 1.46875 -2.765625 2.765625 -2.96875 3.921875 -2.953125 Z M 3.921875 -1.953125 "/>
</g>
<g id="glyph-0-7">
<path d="M 0.875 0 L 1.90625 0 L 1.90625 -3.078125 C 1.90625 -3.265625 1.9375 -3.421875 1.953125 -3.5625 C 2.09375 -4.359375 2.625 -4.921875 3.359375 -4.921875 C 3.515625 -4.921875 3.609375 -4.90625 3.71875 -4.875 L 3.71875 -5.875 C 3.625 -5.890625 3.546875 -5.90625 3.421875 -5.90625 C 2.71875 -5.90625 2.09375 -5.421875 1.828125 -4.640625 L 1.78125 -4.640625 L 1.75 -5.78125 L 0.828125 -5.78125 C 0.859375 -5.234375 0.875 -4.65625 0.875 -3.96875 Z M 0.875 0 "/>
</g>
<g id="glyph-0-8">
<path d="M 1.109375 -7.15625 L 1.109375 -5.78125 L 0.21875 -5.78125 L 0.21875 -4.984375 L 1.109375 -4.984375 L 1.109375 -1.828125 C 1.109375 -1.140625 1.21875 -0.625 1.515625 -0.328125 C 1.765625 -0.03125 2.15625 0.125 2.65625 0.125 C 3.0625 0.125 3.375 0.0625 3.578125 -0.03125 L 3.53125 -0.8125 C 3.40625 -0.78125 3.203125 -0.734375 2.921875 -0.734375 C 2.34375 -0.734375 2.140625 -1.140625 2.140625 -1.859375 L 2.140625 -4.984375 L 3.640625 -4.984375 L 3.640625 -5.78125 L 2.140625 -5.78125 L 2.140625 -7.4375 Z M 1.109375 -7.15625 "/>
</g>
<g id="glyph-0-9">
<path d="M 0.109375 -5.78125 L 2.25 -0.453125 C 2.296875 -0.328125 2.3125 -0.234375 2.3125 -0.171875 C 2.3125 -0.125 2.28125 -0.03125 2.234375 0.078125 C 2 0.609375 1.640625 1.015625 1.34375 1.234375 C 1.03125 1.5 0.6875 1.671875 0.4375 1.75 L 0.6875 2.640625 C 0.953125 2.59375 1.46875 2.40625 1.984375 1.953125 C 2.703125 1.34375 3.21875 0.328125 3.96875 -1.65625 L 5.53125 -5.78125 L 4.421875 -5.78125 L 3.28125 -2.390625 C 3.140625 -1.96875 3.015625 -1.53125 2.90625 -1.1875 L 2.890625 -1.1875 C 2.796875 -1.53125 2.65625 -1.984375 2.515625 -2.359375 L 1.25 -5.78125 Z M 0.109375 -5.78125 "/>
</g>
</g>
<clipPath id="clip-0">
<path clip-rule="nonzero" d="M 50 0 L 253.230469 0 L 253.230469 160.222656 L 50 160.222656 Z M 50 0 "/>
</clipPath>
<clipPath id="clip-1">
<path clip-rule="nonzero" d="M 44.527344 51 L 52.484375 51 L 52.484375 59 L 44.527344 59 Z M 44.527344 51 "/>
</clipPath>
<clipPath id="clip-2">
<path clip-rule="nonzero" d="M 162.453125 49 L 170 49 L 170 57 L 162.453125 57 Z M 162.453125 49 "/>
</clipPath>
<clipPath id="clip-3">
<path clip-rule="nonzero" d="M 170 47.4375 L 173 47.4375 L 173 52 L 170 52 Z M 170 47.4375 "/>
</clipPath>
<clipPath id="clip-4">
<path clip-rule="nonzero" d="M 59 69.21875 L 67 69.21875 L 67 75 L 59 75 Z M 59 69.21875 "/>
</clipPath>
<clipPath id="clip-5">
<path clip-rule="nonzero" d="M 162.453125 93 L 171 93 L 171 98.777344 L 162.453125 98.777344 Z M 162.453125 93 "/>
</clipPath>
<clipPath id="clip-6">
<path clip-rule="nonzero" d="M 170 89.03125 L 173 89.03125 L 173 94 L 170 94 Z M 170 89.03125 "/>
</clipPath>
<clipPath id="clip-7">
<path clip-rule="nonzero" d="M 0.730469 0.519531 L 92.226562 0.519531 L 92.226562 92.011719 L 0.730469 92.011719 Z M 0.730469 0.519531 "/>
</clipPath>
<clipPath id="clip-8">
<rect x="0" y="0" width="93" height="93"/>
</clipPath>
<g id="source-12" clip-path="url(#clip-8)">
<path fill-rule="nonzero" fill="rgb(72.549438%, 72.549438%, 72.941589%)" fill-opacity="1" d="M 90.734375 46.265625 C 90.734375 70.707031 70.921875 90.519531 46.480469 90.519531 C 22.035156 90.519531 2.222656 70.707031 2.222656 46.265625 C 2.222656 21.824219 22.035156 2.007812 46.480469 2.007812 C 70.921875 2.007812 90.734375 21.824219 90.734375 46.265625 "/>
<g clip-path="url(#clip-7)">
<path fill="none" stroke-width="3" stroke-linecap="butt" stroke-linejoin="miter" stroke="rgb(13.725281%, 12.156677%, 12.548828%)" stroke-opacity="1" stroke-dasharray="6" stroke-miterlimit="10" d="M 0.000201357 -0.000979889 C 0.000201357 -24.577557 -19.92187 -44.499629 -44.498447 -44.499629 C -69.078953 -44.499629 -89.001024 -24.577557 -89.001024 -0.000979889 C -89.001024 24.575598 -69.078953 44.501597 -44.498447 44.501597 C -19.92187 44.501597 0.000201357 24.575598 0.000201357 -0.000979889 Z M 0.000201357 -0.000979889 " transform="matrix(0.9945, 0, 0, -0.9945, 90.734175, 46.26465)"/>
</g>
</g>
<g id="compositing-group-0" transform="translate(25.3953, 16.1109)">
<rect x="-25.3953" y="-16.1109" width="304.7436" height="193.3308" fill="rgb(0%, 0%, 0%)" fill-opacity="0"/>
<rect x="-25.3953" y="-16.1109" width="304.7436" height="193.3308" fill="rgb(100%, 100%, 100%)" fill-opacity="1"/>
</g>
<mask id="mask-0">
<use xlink:href="#compositing-group-0"/>
</mask>
<mask id="mask-1">
<use xlink:href="#compositing-group-0" filter="url(#filter-remove-color-and-invert-alpha)"/>
</mask>
<mask id="mask-2">
<g transform="translate(25.3953, 16.1109)">
<rect x="-25.3953" y="-16.1109" width="304.7436" height="193.3308" fill="rgb(100%, 100%, 100%)" fill-opacity="1"/>
</g>
</mask>
<g id="compositing-group-1" mask="url(#mask-2)">
<g transform="translate(25.3953, 16.1109)">
<use xlink:href="#source-12" transform="matrix(1, 0, 0, 1, 25, 16)"/>
</g>
</g>
<g id="compositing-group-2" transform="translate(25.3953, 16.1109)">
<path fill-rule="nonzero" fill="rgb(72.549438%, 72.549438%, 72.941589%)" fill-opacity="1" d="M 219.925781 81.710938 C 219.925781 113.453125 194.195312 139.183594 162.453125 139.183594 C 130.710938 139.183594 104.976562 113.453125 104.976562 81.710938 C 104.976562 49.96875 130.710938 24.238281 162.453125 24.238281 C 194.195312 24.238281 219.925781 49.96875 219.925781 81.710938 "/>
<g clip-path="url(#clip-0)">
<path fill="none" stroke-width="3.896" stroke-linecap="butt" stroke-linejoin="miter" stroke="rgb(13.725281%, 12.156677%, 12.548828%)" stroke-opacity="1" stroke-dasharray="7.792" stroke-miterlimit="10" d="M 0.000329563 -0.000433082 C 0.000329563 -31.918168 -25.872439 -57.790937 -57.790174 -57.790937 C -89.70791 -57.790937 -115.584606 -31.918168 -115.584606 -0.000433082 C -115.584606 31.917302 -89.70791 57.790071 -57.790174 57.790071 C -25.872439 57.790071 0.000329563 31.917302 0.000329563 -0.000433082 Z M 0.000329563 -0.000433082 " transform="matrix(0.9945, 0, 0, -0.9945, 219.925453, 81.710507)"/>
</g>
<path fill-rule="nonzero" fill="rgb(13.725281%, 12.156677%, 12.548828%)" fill-opacity="1" d="M 162.453125 76.738281 C 156.050781 76.738281 156.042969 86.683594 162.453125 86.683594 C 168.851562 86.683594 168.863281 76.738281 162.453125 76.738281 "/>
<g clip-path="url(#clip-1)">
<path fill-rule="nonzero" fill="rgb(0%, 0%, 0%)" fill-opacity="1" d="M 51.847656 58.582031 C 51.324219 58.542969 51.085938 58.34375 50.859375 57.726562 L 49.761719 54.824219 C 50.671875 54.621094 51.0625 54.457031 51.492188 54.074219 C 51.882812 53.734375 52.09375 53.269531 52.09375 52.734375 C 52.09375 51.632812 51.21875 51.027344 49.628906 51.027344 L 46.6875 51.027344 L 46.6875 51.21875 C 47.1875 51.289062 47.246094 51.300781 47.367188 51.382812 C 47.460938 51.441406 47.53125 51.585938 47.53125 51.714844 C 47.53125 51.859375 47.472656 52.144531 47.386719 52.460938 L 45.929688 57.703125 C 45.714844 58.402344 45.632812 58.472656 44.972656 58.582031 L 44.972656 58.769531 L 47.863281 58.769531 L 47.863281 58.582031 C 47.140625 58.484375 47.058594 58.425781 47.058594 58.035156 C 47.058594 57.917969 47.09375 57.761719 47.199219 57.347656 L 47.863281 54.871094 L 48.632812 54.929688 L 50.09375 58.769531 L 51.847656 58.769531 Z M 48.777344 51.714844 C 48.847656 51.46875 49 51.382812 49.378906 51.382812 C 50.363281 51.382812 50.851562 51.835938 50.851562 52.714844 C 50.851562 53.886719 50.09375 54.492188 48.609375 54.492188 C 48.421875 54.492188 48.289062 54.476562 48.007812 54.429688 Z M 48.777344 51.714844 "/>
</g>
<g clip-path="url(#clip-2)">
<path fill-rule="nonzero" fill="rgb(0%, 0%, 0%)" fill-opacity="1" d="M 169.472656 56.597656 C 168.949219 56.5625 168.710938 56.359375 168.488281 55.742188 L 167.386719 52.839844 C 168.296875 52.636719 168.6875 52.472656 169.117188 52.089844 C 169.507812 51.75 169.722656 51.285156 169.722656 50.753906 C 169.722656 49.648438 168.84375 49.042969 167.253906 49.042969 L 164.316406 49.042969 L 164.316406 49.234375 C 164.8125 49.304688 164.875 49.316406 164.992188 49.402344 C 165.085938 49.460938 165.15625 49.601562 165.15625 49.734375 C 165.15625 49.875 165.097656 50.160156 165.015625 50.480469 L 163.558594 55.71875 C 163.34375 56.417969 163.261719 56.488281 162.597656 56.597656 L 162.597656 56.785156 L 165.488281 56.785156 L 165.488281 56.597656 C 164.765625 56.503906 164.683594 56.441406 164.683594 56.050781 C 164.683594 55.933594 164.71875 55.78125 164.824219 55.363281 L 165.488281 52.886719 L 166.257812 52.945312 L 167.71875 56.785156 L 169.472656 56.785156 Z M 166.402344 49.734375 C 166.472656 49.484375 166.628906 49.402344 167.007812 49.402344 C 167.988281 49.402344 168.476562 49.851562 168.476562 50.730469 C 168.476562 51.902344 167.71875 52.507812 166.234375 52.507812 C 166.046875 52.507812 165.914062 52.496094 165.632812 52.449219 Z M 166.402344 49.734375 "/>
</g>
<g clip-path="url(#clip-3)">
<path fill-rule="nonzero" fill="rgb(0%, 0%, 0%)" fill-opacity="1" d="M 172.492188 48.476562 C 172.492188 48.183594 172.191406 47.984375 171.925781 47.984375 C 171.617188 47.984375 171.464844 48.285156 171.378906 48.535156 L 170.511719 51.070312 C 170.488281 51.136719 170.429688 51.289062 170.429688 51.363281 C 170.429688 51.4375 170.476562 51.539062 170.5625 51.539062 C 170.6875 51.539062 170.828125 51.363281 170.886719 51.269531 L 172.257812 49.105469 C 172.375 48.929688 172.492188 48.695312 172.492188 48.476562 "/>
</g>
<g clip-path="url(#clip-4)">
<path fill-rule="nonzero" fill="rgb(0%, 0%, 0%)" fill-opacity="1" d="M 59.476562 70 L 59.714844 70 C 59.726562 70 59.761719 70 59.820312 69.988281 C 60.15625 69.964844 60.273438 70.082031 60.355469 70.53125 C 60.496094 71.207031 60.640625 72.464844 60.675781 73.398438 L 60.722656 74.445312 C 60.746094 74.90625 60.769531 75 60.875 75 C 61.007812 75 61.210938 74.707031 61.636719 73.886719 C 61.695312 73.757812 61.929688 73.339844 62.289062 72.714844 L 63.34375 70.863281 L 63.6875 74.644531 C 63.710938 74.964844 63.734375 75 63.816406 75 C 63.910156 75 64.03125 74.882812 64.351562 74.492188 C 64.363281 74.480469 64.410156 74.417969 64.457031 74.359375 C 66.070312 72.429688 66.972656 70.9375 66.972656 70.175781 C 66.972656 69.820312 66.710938 69.5625 66.355469 69.5625 C 66.070312 69.5625 65.890625 69.714844 65.890625 69.964844 C 65.890625 70.117188 65.953125 70.210938 66.140625 70.390625 C 66.332031 70.566406 66.402344 70.6875 66.402344 70.828125 C 66.402344 71.339844 66 71.980469 64.445312 73.910156 L 64.066406 69.738281 C 64.066406 69.605469 64.042969 69.570312 63.96875 69.570312 C 63.910156 69.570312 63.875 69.59375 63.816406 69.691406 L 61.542969 73.296875 C 61.507812 72.464844 61.375 71.21875 61.246094 70.390625 C 61.113281 69.65625 61.089844 69.5625 60.949219 69.5625 C 60.875 69.5625 60.746094 69.59375 60.59375 69.644531 C 60.460938 69.691406 60.175781 69.738281 59.785156 69.796875 C 59.738281 69.796875 59.621094 69.820312 59.476562 69.84375 Z M 59.476562 70 "/>
</g>
<g clip-path="url(#clip-5)">
<path fill-rule="nonzero" fill="rgb(0%, 0%, 0%)" fill-opacity="1" d="M 162.640625 93.589844 L 162.878906 93.589844 C 162.890625 93.589844 162.925781 93.589844 162.984375 93.578125 C 163.316406 93.554688 163.433594 93.671875 163.519531 94.121094 C 163.660156 94.800781 163.804688 96.054688 163.839844 96.992188 L 163.886719 98.035156 C 163.910156 98.496094 163.933594 98.59375 164.039062 98.59375 C 164.171875 98.59375 164.375 98.296875 164.800781 97.476562 C 164.859375 97.347656 165.09375 96.933594 165.449219 96.304688 L 166.507812 94.453125 L 166.847656 98.234375 C 166.875 98.554688 166.898438 98.59375 166.980469 98.59375 C 167.074219 98.59375 167.195312 98.472656 167.515625 98.082031 C 167.527344 98.070312 167.574219 98.011719 167.621094 97.953125 C 169.234375 96.019531 170.132812 94.527344 170.132812 93.765625 C 170.132812 93.410156 169.875 93.152344 169.519531 93.152344 C 169.234375 93.152344 169.054688 93.304688 169.054688 93.554688 C 169.054688 93.707031 169.113281 93.800781 169.304688 93.980469 C 169.496094 94.160156 169.5625 94.277344 169.5625 94.417969 C 169.5625 94.929688 169.160156 95.570312 167.609375 97.5 L 167.230469 93.328125 C 167.230469 93.199219 167.207031 93.160156 167.132812 93.160156 C 167.074219 93.160156 167.039062 93.1875 166.980469 93.28125 L 164.707031 96.886719 C 164.667969 96.054688 164.539062 94.8125 164.410156 93.980469 C 164.277344 93.246094 164.253906 93.152344 164.113281 93.152344 C 164.039062 93.152344 163.910156 93.1875 163.753906 93.234375 C 163.625 93.28125 163.339844 93.328125 162.949219 93.386719 C 162.902344 93.386719 162.785156 93.410156 162.640625 93.433594 Z M 162.640625 93.589844 "/>
</g>
<g clip-path="url(#clip-6)">
<path fill-rule="nonzero" fill="rgb(0%, 0%, 0%)" fill-opacity="1" d="M 172.792969 90.070312 C 172.792969 89.777344 172.492188 89.578125 172.222656 89.578125 C 171.914062 89.578125 171.761719 89.878906 171.679688 90.128906 L 170.8125 92.660156 C 170.785156 92.726562 170.726562 92.878906 170.726562 92.953125 C 170.726562 93.027344 170.777344 93.128906 170.859375 93.128906 C 170.984375 93.128906 171.128906 92.953125 171.1875 92.863281 L 172.558594 90.695312 C 172.671875 90.523438 172.792969 90.289062 172.792969 90.070312 "/>
</g>
</g>
<g id="compositing-group-3" filter="url(#filter-0)" mask="url(#mask-0)">
<rect x="0" y="0" width="304.7436" height="193.3308" fill="rgb(0%, 0%, 0%)" fill-opacity="1"/>
</g>
<g id="compositing-group-4" mask="url(#mask-1)">
<use xlink:href="#compositing-group-2"/>
</g>
</defs>
<g filter="url(#filter-1)" transform="translate(-25.3953, -16.1109)">
<rect x="0" y="0" width="304.7436" height="193.3308" fill="rgb(0%, 0%, 0%)" fill-opacity="1"/>
</g>
<path fill-rule="nonzero" fill="rgb(13.725281%, 12.156677%, 12.548828%)" fill-opacity="1" d="M 71.480469 57.292969 C 65.078125 57.292969 65.070312 67.238281 71.480469 67.238281 C 77.878906 67.238281 77.886719 57.292969 71.480469 57.292969 "/>
<path fill="none" stroke-width="3" stroke-linecap="butt" stroke-linejoin="miter" stroke="rgb(0%, 0%, 0%)" stroke-opacity="1" stroke-miterlimit="10" d="M -0.00176828 0.00129583 L -20.450172 18.462206 " transform="matrix(0.9945, 0, 0, -0.9945, 65.224415, 56.618476)"/>
<path fill-rule="nonzero" fill="rgb(0%, 0%, 0%)" fill-opacity="1" d="M 71.480469 62.265625 L 65.917969 50.707031 L 64.757812 56.195312 L 59.414062 57.910156 Z M 71.480469 62.265625 "/>
<path fill-rule="nonzero" fill="rgb(0%, 0%, 0%)" fill-opacity="1" d="M 38.632812 32.613281 L 50.695312 36.964844 L 45.351562 38.679688 L 44.195312 44.167969 Z M 38.632812 32.613281 "/>
<path fill-rule="nonzero" fill="rgb(91.372681%, 12.156677%, 12.548828%)" fill-opacity="1" d="M 104.980469 87.535156 C 98.578125 87.535156 98.570312 97.480469 104.980469 97.480469 C 111.378906 97.480469 111.386719 87.535156 104.980469 87.535156 "/>
<g fill="rgb(0%, 0%, 0%)" fill-opacity="1">
<use xlink:href="#glyph-0-0" x="72.001236" y="136.54674"/>
<use xlink:href="#glyph-0-1" x="76.7271" y="136.54674"/>
<use xlink:href="#glyph-0-2" x="79.519656" y="136.54674"/>
<use xlink:href="#glyph-0-3" x="86.143026" y="136.54674"/>
<use xlink:href="#glyph-0-4" x="92.814132" y="136.54674"/>
<use xlink:href="#glyph-0-5" x="99.389766" y="136.54674"/>
<use xlink:href="#glyph-0-6" x="102.20619" y="136.54674"/>
<use xlink:href="#glyph-0-7" x="107.958378" y="136.54674"/>
</g>
<g fill="rgb(0%, 0%, 0%)" fill-opacity="1">
<use xlink:href="#glyph-0-1" x="111.908532" y="136.54674"/>
<use xlink:href="#glyph-0-8" x="114.701088" y="136.54674"/>
</g>
<g fill="rgb(0%, 0%, 0%)" fill-opacity="1">
<use xlink:href="#glyph-0-9" x="118.758648" y="136.54674"/>
</g>
<path fill="none" stroke-width="3" stroke-linecap="butt" stroke-linejoin="miter" stroke="rgb(0%, 0%, 0%)" stroke-opacity="1" stroke-miterlimit="10" d="M 0.000397034 -0.00160754 L -7.218997 40.569188 " transform="matrix(0.9945, 0, 0, -0.9945, 160.976168, 73.767933)"/>
<path fill-rule="nonzero" fill="rgb(0%, 0%, 0%)" fill-opacity="1" d="M 162.453125 82.0625 L 165.148438 69.523438 L 160.867188 73.148438 L 155.597656 71.222656 Z M 162.453125 82.0625 "/>
<path fill-rule="nonzero" fill="rgb(0%, 0%, 0%)" fill-opacity="1" d="M 152.324219 25.128906 L 159.179688 35.96875 L 153.910156 34.042969 L 149.625 37.667969 Z M 152.324219 25.128906 "/>
<path fill="none" stroke-width="1" stroke-linecap="butt" stroke-linejoin="miter" stroke="rgb(0%, 0%, 0%)" stroke-opacity="1" stroke-miterlimit="10" d="M -0.000882403 -0.000322272 L 8.707168 17.407923 " transform="matrix(0.9945, 0, 0, -0.9945, 88.375878, 124.890304)"/>
<path fill-rule="nonzero" fill="rgb(0%, 0%, 0%)" fill-opacity="1" d="M 100.175781 101.300781 L 99.363281 111.957031 L 96.800781 108.050781 L 92.132812 108.339844 Z M 100.175781 101.300781 "/>
</svg>
