<?xml version="1.0" encoding="UTF-8"?>
<svg xmlns="http://www.w3.org/2000/svg" xmlns:xlink="http://www.w3.org/1999/xlink" width="253.953pt" height="161.109pt" viewBox="0 0 253.953 161.109">
<defs>
<clipPath id="clip-0">
<path clip-rule="nonzero" d="M 58 130 L 63.738281 130 L 63.738281 138.65625 L 58 138.65625 Z M 58 130 "/>
</clipPath>
<clipPath id="clip-1">
<path clip-rule="nonzero" d="M 17 12 L 252 12 L 252 160.222656 L 17 160.222656 Z M 17 12 "/>
</clipPath>
<clipPath id="clip-2">
<path clip-rule="nonzero" d="M 136 30 L 142.910156 30 L 142.910156 38.921875 L 136 38.921875 Z M 136 30 "/>
</clipPath>
<clipPath id="clip-3">
<path clip-rule="nonzero" d="M 111.703125 103 L 118 103 L 118 111.84375 L 111.703125 111.84375 Z M 111.703125 103 "/>
</clipPath>
<clipPath id="clip-4">
<path clip-rule="nonzero" d="M 197 35 L 215.722656 35 L 215.722656 56.964844 L 197 56.964844 Z M 197 35 "/>
</clipPath>
</defs>
<path fill="none" stroke-width="1" stroke-linecap="butt" stroke-linejoin="miter" stroke="rgb(0%, 0%, 0%)" stroke-opacity="1" stroke-miterlimit="10" d="M 0.0000873303 -0.00121322 C -5.604959 5.544915 11.500841 32.160049 23.327607 42.427457 " transform="matrix(0.9945, 0, 0, -0.9945, 94.288976, 121.830825)"/>
<path fill-rule="nonzero" fill="rgb(0%, 0%, 0%)" fill-opacity="1" d="M 123.398438 75.839844 L 117.429688 84.707031 L 117.128906 80.039062 L 112.925781 77.988281 Z M 123.398438 75.839844 "/>
<path fill="none" stroke-width="2" stroke-linecap="butt" stroke-linejoin="miter" stroke="rgb(0%, 0%, 0%)" stroke-opacity="1" stroke-miterlimit="10" d="M 0.000277828 0.00193107 L 85.3486 0.00193107 " transform="matrix(0.9945, 0, 0, -0.9945, 16.101286, 145.150358)"/>
<path fill-rule="nonzero" fill="rgb(0%, 0%, 0%)" fill-opacity="1" d="M 15.105469 151.613281 L 17.097656 151.613281 L 17.097656 138.6875 L 15.105469 138.6875 Z M 15.105469 151.613281 "/>
<path fill-rule="nonzero" fill="rgb(0%, 0%, 0%)" fill-opacity="1" d="M 101.976562 151.613281 L 99.984375 151.613281 L 99.984375 138.6875 L 101.976562 138.6875 Z M 101.976562 151.613281 "/>
<g clip-path="url(#clip-0)">
<path fill-rule="nonzero" fill="rgb(0%, 0%, 0%)" fill-opacity="1" d="M 58.570312 138.261719 L 61.464844 138.261719 L 61.464844 138.070312 C 60.789062 137.988281 60.65625 137.917969 60.65625 137.585938 C 60.65625 137.359375 60.683594 137.21875 60.789062 136.839844 L 62.246094 131.585938 C 62.457031 130.898438 62.542969 130.828125 63.21875 130.707031 L 63.21875 130.519531 L 60.289062 130.519531 L 60.289062 130.707031 C 60.976562 130.792969 61.121094 130.886719 61.121094 131.21875 C 61.121094 131.382812 61.074219 131.65625 60.988281 131.953125 L 59.53125 137.195312 C 59.320312 137.882812 59.234375 137.953125 58.570312 138.070312 Z M 58.570312 138.261719 "/>
</g>
<g clip-path="url(#clip-1)">
<path fill="none" stroke-width="2" stroke-linecap="butt" stroke-linejoin="miter" stroke="rgb(0%, 0%, 0%)" stroke-opacity="1" stroke-miterlimit="10" d="M 0.000953394 -0.000137205 C 24.279014 34.604249 65.58039 43.976107 98.232634 35.523367 C 130.884877 27.070627 143.163347 12.836087 140.928398 -4.466106 C 139.486876 -15.660488 117.208093 -46.325238 139.53401 -59.998095 C 161.859928 -73.67488 183.62809 -71.443859 177.209978 -62.790798 " transform="matrix(0.9945, 0, 0, -0.9945, 45.913114, 79.046739)"/>
</g>
<g clip-path="url(#clip-2)">
<path fill-rule="nonzero" fill="rgb(0%, 0%, 0%)" fill-opacity="1" d="M 142.421875 32.375 L 142.386719 30.679688 L 136.09375 30.679688 L 136.09375 30.902344 C 136.921875 30.964844 137.125 31.117188 137.125 31.96875 L 137.125 37.105469 C 137.125 37.992188 137.027344 38.253906 136.09375 38.300781 L 136.09375 38.527344 L 139.410156 38.527344 L 139.410156 38.300781 C 138.570312 38.265625 138.332031 38.097656 138.332031 37.234375 L 138.332031 31.53125 C 138.332031 31.222656 138.390625 31.128906 138.710938 31.128906 L 140.324219 31.128906 C 141.402344 31.128906 141.925781 31.175781 142.125 32.375 Z M 142.421875 32.375 "/>
</g>
<g clip-path="url(#clip-3)">
<path fill-rule="nonzero" fill="rgb(0%, 0%, 0%)" fill-opacity="1" d="M 117.953125 103.890625 L 117.089844 104.058594 C 116.542969 105.339844 115.902344 106.59375 115.074219 107.722656 C 115.121094 106.558594 115.203125 103.871094 113.507812 103.871094 C 112.714844 103.871094 111.695312 104.933594 111.695312 105.632812 C 111.695312 105.667969 111.707031 105.71875 111.753906 105.71875 C 112.015625 105.71875 111.992188 104.710938 113.152344 104.710938 C 114.386719 104.710938 114.445312 107.128906 114.445312 107.992188 C 114.445312 108.300781 114.433594 108.574219 114.433594 108.871094 C 114.03125 109.394531 113.070312 110.589844 113.070312 111.242188 C 113.070312 111.457031 113.164062 111.550781 113.390625 111.550781 C 114.375 111.550781 114.550781 109.535156 114.871094 108.859375 C 115.074219 108.445312 115.570312 107.851562 115.84375 107.460938 C 116.625 106.347656 117.480469 105.171875 117.953125 103.890625 "/>
</g>
<g clip-path="url(#clip-4)">
<path fill-rule="nonzero" fill="rgb(0%, 0%, 0%)" fill-opacity="1" d="M 215.515625 52.296875 L 214.472656 51.253906 C 212.589844 53.101562 210.714844 54.320312 208 54.320312 C 203.289062 54.320312 201.40625 50.328125 201.40625 46.152344 C 201.40625 42.214844 202.992188 37.746094 207.644531 37.746094 C 211.011719 37.746094 212.894531 39.980469 213.609375 43.078125 L 215.070312 43.078125 L 214.769531 35.742188 L 213.398438 35.742188 C 213.339844 36.25 213.011719 36.667969 212.441406 36.667969 C 210.773438 36.667969 209.132812 35.742188 207.402344 35.742188 C 201.4375 35.742188 197.207031 40.1875 197.207031 46.09375 C 197.207031 52.175781 201.019531 56.472656 207.222656 56.472656 C 209.847656 56.472656 214.265625 54.738281 215.515625 52.296875 M 214.144531 41.707031 C 213.128906 38.726562 210.832031 36.875 207.644531 36.875 C 202.484375 36.875 200.542969 41.679688 200.542969 46.152344 C 200.542969 50.804688 202.78125 55.191406 208 55.191406 C 210.265625 55.191406 212.261719 54.351562 213.996094 52.890625 C 212.234375 54.679688 209.699219 55.578125 207.222656 55.578125 C 201.496094 55.578125 198.070312 51.699219 198.070312 46.09375 C 198.070312 40.664062 201.917969 36.609375 207.402344 36.609375 C 209.132812 36.609375 210.742188 37.535156 212.441406 37.535156 C 213.011719 37.535156 213.609375 37.292969 213.9375 36.785156 Z M 214.144531 41.707031 "/>
</g>
<path fill="none" stroke-width="0.75" stroke-linecap="butt" stroke-linejoin="miter" stroke="rgb(0%, 0%, 0%)" stroke-opacity="1" stroke-miterlimit="10" d="M 0.00124615 -0.000334641 L 39.07553 -0.000334641 " transform="matrix(0.9945, 0, 0, -0.9945, 17.049542, 155.745761)"/>
<path fill-rule="nonzero" fill="rgb(0%, 0%, 0%)" fill-opacity="1" d="M 61.175781 155.746094 L 53.757812 158.777344 L 55.519531 155.746094 L 53.757812 152.714844 Z M 61.175781 155.746094 "/>
<path fill="none" stroke-width="0.75" stroke-linecap="butt" stroke-linejoin="miter" stroke="rgb(0%, 0%, 0%)" stroke-opacity="1" stroke-miterlimit="10" d="M -0.000381046 0.00000180995 C -1.96038 -0.675589 9.371477 13.41362 21.210026 19.615701 C 28.126976 23.241109 46.972815 30.334812 58.516776 31.682066 " transform="matrix(0.9945, 0, 0, -0.9945, 41.828504, 64.652346)"/>
<path fill-rule="nonzero" fill="rgb(0%, 0%, 0%)" fill-opacity="1" d="M 105.292969 33.011719 L 98.015625 36.378906 L 99.636719 33.269531 L 97.742188 30.320312 Z M 105.292969 33.011719 "/>
</svg>
