<?xml version="1.0" encoding="UTF-8"?>
<svg id="Layer_1" xmlns="http://www.w3.org/2000/svg" width="131" height="106" version="1.1" viewBox="0 0 131 106">
  <!-- Generator: Adobe Illustrator 29.8.2, SVG Export Plug-In . SVG Version: 2.1.1 Build 3)  -->
  <defs>
    <style>
      .st0 {
        fill: none;
        stroke: #000;
        stroke-linejoin: round;
        stroke-width: 5px;
      }

      .st1 {
        font-family: CourierNewPS-BoldMT, 'Courier New';
        font-size: 36px;
        font-weight: 700;
      }
    </style>
  </defs>
  <g>
    <path class="st0" d="M9,9h49v67c0,15-10,25-25,25h-3c-15,0-26-11-26-25s10-24,24-24h76c14,0,23-10,23-23v-1c0-14-11-24-25-24h-4c-14,0-24,10-24,24v49c0,14,10,24,24,24h7c10,0,18-5,22-12"/>
    <path class="st0" d="M58,52h16"/>
  </g>
  <text class="st1" transform="translate(22.9 41.4)"><tspan x="0" y="0">E</tspan></text>
  <text class="st1" transform="translate(87.7 41.4)"><tspan x="0" y="0">S</tspan></text>
  <text class="st1" transform="translate(87.7 84)"><tspan x="0" y="0">C</tspan></text>
  <text class="st1" transform="translate(22.9 84)"><tspan x="0" y="0">Q</tspan></text>
</svg>